# AST/ASF file generated using VICON BodyLanguage
# -----------------------------------------------
:version 1.10
:name VICON
:units
  mass 1.0
  length 0.45
  angle deg
:documentation
   .ast/.asf automatically generated from VICON data using
   VICON BodyBuilder and BodyLanguage model FoxedUp or BRILLIANT.MOD
:root
   order TX TY TZ RX RY RZ
   axis XYZ
   position 0 0 0  
   orientation 0 0 0 
:bonedata
  begin
     id 1 
     name lhipjoint
     direction 0.671379 -0.66392 0.329334 
     length 2.38647 
     axis 0 0 0  XYZ
  end
  begin
     id 2 
     name lfemur
     direction 0.34202 -0.939693 0  
     length 6.48179  
     axis 0 0 20  XYZ
    dof rx ry rz
    limits (-160.0 20.0)
           (-70.0 70.0)
           (-60.0 70.0)
  end
  begin
     id 3 
     name ltibia
     direction 0.34202 -0.939693 0   
     length 6.86524   
     axis 0 0 20   XYZ
    dof rx
    limits (-10.0 170.0)
  end
  begin
     id 4 
     name lfoot
     direction 0.204886 -0.562919 0.800715   
     length 1.73031   
     axis -90 7.62852e-016 20   XYZ
    dof rx rz
    limits (-45.0 90.0)
           (-70.0 20.0)
  end
  begin
     id 5 
     name ltoes
     direction 1.53548e-011 -4.21841e-011 1   
     length 0.828161   
     axis -90 7.62852e-016 20   XYZ
    dof rx
    limits (-90.0 20.0)
  end
  begin
     id 6 
     name rhipjoint
     direction -0.662732 -0.670855 0.332775   
     length 2.3618  
     axis 0 0 0  XYZ 
  end
  begin
     id 7 
     name rfemur
     direction -0.34202 -0.939693 0   
     length 6.3025   
     axis 0 0 -20   XYZ
    dof rx ry rz
    limits (-160.0 20.0)
           (-70.0 70.0)
           (-70.0 60.0)
  end
  begin
     id 8 
     name rtibia
     direction -0.34202 -0.939693 0   
     length 6.8732   
     axis 0 0 -20   XYZ
    dof rx
    limits (-10.0 170.0)
 end
 begin
     id 9 
     name rfoot
     direction -0.173856 -0.477665 0.861168   
     length 1.54784  
     axis -90 -7.62852e-016 -20   XYZ
    dof rx rz
    limits (-45.0 90.0)
           (-20.0 70.0)
  end
  begin
     id 10 
     name rtoes
     direction -1.53562e-011 -4.21802e-011 1   
     length 0.759618   
     axis -90 -7.62852e-016 -20   XYZ
    dof rx
    limits (-90.0 20.0)
  end
  begin
     id 11 
     name lowerback
     direction -0.0278357 0.999497 -0.0151789   
     length 1.97203   
     axis 0 0 0   XYZ
    dof rx ry rz
    limits (-20.0 45.0)
           (-30.0 30.0)
           (-30.0 30.0)
  end
  begin
     id 12 
     name upperback
     direction -0.00360622 0.997542 0.0699804   
     length 1.94709   
     axis 0 0 0   XYZ
    dof rx ry rz
    limits (-20.0 45.0)
           (-30.0 30.0)
           (-30.0 30.0)
  end
  begin
     id 13 
     name thorax
     direction 0.00907706 0.997048 0.0762461   
     length 1.95722   
     axis 0 0 0   XYZ
    dof rx ry rz
    limits (-20.0 45.0)
           (-30.0 30.0)
           (-30.0 30.0)
  end
  begin
     id 14 
     name lowerneck
     direction -0.0481835 0.99872 -0.0153927   
     length 1.63078   
     axis 0 0 0   XYZ
    dof rx ry rz
    limits (-20.0 45.0)
           (-30.0 30.0)
           (-30.0 30.0)
  end
  begin
     id 15 
     name upperneck
     direction 0.0859716 0.979226 -0.183644   
     length 1.62591   
     axis 0 0 0   XYZ
    dof rx ry rz
    limits (-20.0 45.0)
           (-30.0 30.0)
           (-30.0 30.0)
  end
  begin
     id 16
     name head
     direction 0.0324821 0.997629 -0.0606773  
     length 1.64811  
     axis 0 0 0   XYZ
    dof rx ry rz
    limits (-20.0 45.0)
           (-30.0 30.0)
           (-30.0 30.0)
  end
  begin
     id 17 
     name lclavicle
     direction 0.939609 0.311019 0.142835  
     length 3.70647  
     axis 0 0 0   XYZ
    dof ry rz
    limits (-20.0 10.0)
           (0.0 20.0)
  end
  begin
     id 18 
     name lhumerus
     direction 1 -4.48963e-011 -1.59838e-027   
     length 4.59207   
     axis 180 -30 -90   XYZ
    dof rx ry rz
    limits (-60.0 90.0)
           (-90.0 90.0)
           (-90.0 90.0)
  end
  begin
     id 19
     name lradius
     direction 1 -4.48957e-011 -1.3483e-026   
     length 2.98109   
     axis 180 -30 -90   XYZ
    dof rx
    limits (-10.0 170.0)
  end
  begin
     id 20
     name lwrist
     direction 1 -4.48954e-011 -3.11579e-026   
     length 1.49055   
     axis 2.00652e-014 90 90   XYZ
    dof ry
    limits (-180.0 0.0)
 end
  begin
     id 21 
     name lhand
     direction 1 -4.4911e-011 -6.23158e-026   
     length 0.480203   
     axis 3.97628e-014 90 90   XYZ
    dof rx rz
    limits (-90.0 90.0)
           (-45.0 45.0)
  end
  begin
     id 22 
     name lfingers
     direction 1 -4.48893e-011 -1.24632e-025   
     length 0.387152   
     axis 7.95256e-014 90 90   XYZ
    dof rx
    limits (0.0 90.0)
  end
  begin
     id 23
     name lthumb
     direction 0.707107 -6.35013e-011 0.707107   
     length 0.555875   
     axis -90 45 2.85299e-015   XYZ
    dof rx rz
    limits (-45.0 45.0)
           (-45.0 45.0)
  end
  begin
     id 24 
     name rclavicle
     direction -0.950396 0.30392 0.0661859   
     length 3.70894  
     axis 0 0 0   XYZ 
    dof ry rz
    limits (-10.0 20.0)
           (-20.0 0.0)
  end
  begin
     id 25 
     name rhumerus
     direction -1 -4.48957e-011 -2.96677e-027  
     length 4.76508   
     axis 180 30 90   XYZ
    dof rx ry rz
    limits (-90.0 60.0)
           (-90.0 90.0)
           (-90.0 90.0)
  end
  begin
     id 26 
     name rradius
     direction -1 -4.48974e-011 -1.44501e-026   
     length 2.78902   
     axis 180 30 90   XYZ
    dof rx
    limits (-10.0 170.0)
  end
  begin
     id 27 
     name rwrist
     direction -1 -4.48978e-011 -3.11579e-026   
     length 1.39451   
     axis 2.00652e-014 -90 -90   XYZ
    dof ry
    limits (-180.0 0.0)
  end
  begin
     id 28
     name rhand
     direction -1 -4.48956e-011 -6.23158e-026   
     length 0.721303   
     axis 3.97628e-014 -90 -90   XYZ
    dof rx rz
    limits (-90.0 90.0)
           (-45.0 45.0)
  end
  begin
     id 29
     name rfingers
     direction -1 -4.4899e-011 -1.24632e-025   
     length 0.581533   
     axis 7.95256e-014 -90 -90   XYZ
    dof rx
    limits (0.0 90.0)
  end
  begin
     id 30
     name rthumb
     direction -0.707107 -6.34911e-011 0.707107   
     length 0.834968   
     axis -90 -45 -2.85299e-015   XYZ
    dof rx rz
    limits (-45.0 45.0)
           (-45.0 45.0)
  end
:hierarchy
  begin
    root lhipjoint rhipjoint lowerback
    lhipjoint lfemur
    lfemur ltibia
    ltibia lfoot
    lfoot ltoes
    rhipjoint rfemur
    rfemur rtibia
    rtibia rfoot
    rfoot rtoes
    lowerback upperback
    upperback thorax
    thorax lowerneck lclavicle rclavicle
    lowerneck upperneck
    upperneck head
    lclavicle lhumerus
    lhumerus lradius
    lradius lwrist
    lwrist lhand lthumb
    lhand lfingers
    rclavicle rhumerus
    rhumerus rradius
    rradius rwrist
    rwrist rhand rthumb
    rhand rfingers
  end

#!OML:ASF I:\salsa\salsa 7_09\Patient 1\Session 1\dancerfemale.ASF
:FULLY-SPECIFIED
:DEGREES
720
root 14.5911 15.2298 5.28165 -171.199 -439.494 173.565
lowerback 3.48201 3.02663 6.22138
upperback -6.78527 4.44815 0.548699
thorax -8.7067 1.70673 -3.34939
lowerneck 3.20319 0.149146 -9.71209
upperneck 20.5078 -1.0409 3.99169
head 5.73708 -1.29448 2.82945
rclavicle -9.54166e-015 -2.3059e-014
rhumerus -49.5066 -9.34615 -74.1957
rradius 53.9557
rwrist -11.8302
rhand -0.919739 54.3179
rfingers 7.12502
rthumb 24.7091 25.8935
lclavicle -9.54166e-015 -2.3059e-014
lhumerus -9.19522 38.3509 59.9875
lradius 121.083
lwrist -27.5663
lhand -20.5013 47.6021
lfingers 7.12502
lthumb 5.85582 437.501
rfemur 15.4404 4.41115 8.09314
rtibia 26.8434
rfoot 8.98343 -10.9138
rtoes -4.00493
lfemur -36.6726 -0.514384 -9.50196
ltibia 34.4778
lfoot -11.5298 7.75957
ltoes -25.1203
721
root 14.261 15.332 5.44454 -167.067 -438.744 168.926
lowerback 3.23824 3.00431 5.20293
upperback -6.85212 4.31049 0.3974
thorax -8.69913 1.70197 -2.92005
lowerneck 3.79291 -0.03615 -10.3041
upperneck 20.098 -1.49265 4.84474
head 5.54459 -1.50598 3.18374
rclavicle 3.16068e-014 1.98785e-014
rhumerus -50.6607 -10.7563 -72.5752
rradius 49.2064
rwrist -10.343
rhand 0.457211 53.3325
rfingers 7.12502
rthumb 26.0282 25.0954
lclavicle 3.16068e-014 1.98785e-014
lhumerus -7.45341 37.3753 61.3295
lradius 121.331
lwrist -27.5639
lhand -22.0607 48.1428
lfingers 7.12502
lthumb 4.35014 438.078
rfemur 13.5716 6.05417 7.80853
rtibia 31.1043
rfoot 9.46887 -15.8271
rtoes -3.21398
lfemur -34.6618 1.6673 -11.9225
ltibia 34.1486
lfoot -11.6592 7.28714
ltoes -26.0553
722
root 13.9533 15.3779 5.59153 -165.267 -438.213 166.466
lowerback 3.16035 2.88397 4.62417
upperback -6.80892 4.08699 0.198546
thorax -8.64368 1.62873 -2.7826
lowerneck 4.38398 -0.314847 -10.7122
upperneck 19.6469 -2.06741 5.6613
head 5.35371 -1.76953 3.49297
rclavicle 6.75868e-015 3.73715e-014
rhumerus -51.8429 -12.8543 -70.6941
rradius 44.8085
rwrist -8.52836
rhand 1.86051 52.0235
rfingers 7.12502
rthumb 27.3712 23.9912
lclavicle 6.75868e-015 3.73715e-014
lhumerus -5.35496 36.2054 62.5961
lradius 121.463
lwrist -27.4089
lhand -23.014 48.4351
lfingers 7.12502
lthumb 3.42954 438.387
rfemur 11.3805 6.48593 7.64699
rtibia 36.2753
rfoot 8.69292 -18.0187
rtoes -4.7246
lfemur -33.01 3.58855 -13.642
ltibia 34.4111
lfoot -12.2308 6.38624
ltoes -27.1129
723
root 13.6734 15.4051 5.71936 -165.818 -437.765 166.608
lowerback 3.11814 2.70863 4.43684
upperback -6.87311 3.82449 0.0749955
thorax -8.71154 1.50378 -2.78382
lowerneck 5.11602 -0.59625 -11.015
upperneck 19.1583 -2.65372 6.40302
head 5.13499 -2.04487 3.76337
rclavicle 2.06736e-014 3.57812e-014
rhumerus -53.2703 -15.3223 -68.4095
rradius 40.7759
rwrist -6.35297
rhand 3.30889 50.3342
rfingers 7.12502
rthumb 28.7557 22.5286
lclavicle 2.06736e-014 3.57812e-014
lhumerus -3.25937 35.0291 63.6088
lradius 121.425
lwrist -27.3793
lhand -23.2183 48.7304
lfingers 7.12502
lthumb 3.23226 438.686
rfemur 8.4636 6.78005 8.29622
rtibia 41.8038
rfoot 5.97443 -18.1684
rtoes -7.39266
lfemur -31.8793 5.77428 -14.6613
ltibia 34.9076
lfoot -12.7574 4.6169
ltoes -28.5303
724
root 13.427 15.416 5.85031 -167.821 -437.629 168.226
lowerback 3.45682 2.35979 4.69561
upperback -7.00717 3.39551 0.0814719
thorax -9.08168 1.25979 -2.90062
lowerneck 5.82434 -0.856275 -11.3027
upperneck 18.7763 -3.18186 6.90326
head 4.95464 -2.31295 3.95902
rclavicle 4.23411e-014 -1.03368e-014
rhumerus -55.4123 -17.1775 -66.063
rradius 38.3927
rwrist -4.72081
rhand 3.68299 49.4319
rfingers 7.12502
rthumb 29.113 21.6877
lclavicle 4.23411e-014 -1.03368e-014
lhumerus -1.42674 33.9587 64.4919
lradius 121.028
lwrist -27.9769
lhand -24.0099 48.7484
lfingers 7.12502
lthumb 2.46781 438.714
rfemur 5.16181 6.7165 9.54032
rtibia 47.234
rfoot 3.71099 -15.4868
rtoes -7.81637
lfemur -31.0236 7.18979 -15.0711
ltibia 35.4785
lfoot -12.9257 2.62433
ltoes -29.7082
725
root 13.1703 15.4289 5.95833 -159.761 -437.186 159.134
lowerback 3.92022 1.96012 2.26805
upperback -6.90542 2.64511 -0.443707
thorax -9.37239 1.04398 -2.04275
lowerneck 6.40112 -1.18044 -11.4875
upperneck 18.4336 -3.74755 7.19206
head 4.81396 -2.60192 4.06968
rclavicle -2.28602e-014 -1.66979e-014
rhumerus -57.411 -18.9751 -63.371
rradius 36.0741
rwrist -3.35005
rhand 4.07871 48.6658
rfingers 7.12502
rthumb 29.4908 20.9876
lclavicle -2.28602e-014 -1.66979e-014
lhumerus 0.437848 32.7868 65.6181
lradius 120.405
lwrist -28.6678
lhand -25.0407 48.701
lfingers 7.12502
lthumb 1.47226 438.676
rfemur 2.52013 5.94358 8.15518
rtibia 52.0679
rfoot 0.72752 -11.9296
rtoes -9.30655
lfemur -29.305 7.26903 -17.8286
ltibia 35.7277
lfoot -13.3607 1.71583
ltoes -30.2516
726
root 12.9397 15.4583 6.06661 -153.573 -437.181 152.559
lowerback 4.10676 1.39138 0.582839
upperback -7.00695 1.69738 -0.828827
thorax -9.67643 0.680119 -1.40587
lowerneck 6.88945 -1.43264 -11.6296
upperneck 18.0726 -4.20064 7.50451
head 4.673 -2.82964 4.18504
rclavicle 3.06128e-014 2.62396e-014
rhumerus -59.3835 -20.2678 -60.8278
rradius 34.213
rwrist -2.45118
rhand 4.39289 48.0957
rfingers 7.12502
rthumb 29.7907 20.4708
lclavicle 3.06128e-014 2.62396e-014
lhumerus 2.07395 31.7684 66.5957
lradius 119.838
lwrist -28.8209
lhand -25.4173 48.7576
lfingers 7.12502
lthumb 1.10851 438.734
rfemur -0.714764 4.57908 7.73283
rtibia 56.1006
rfoot -1.54946 -9.15875
rtoes -8.64462
lfemur -28.2859 5.88079 -19.7829
ltibia 35.7724
lfoot -13.8552 2.59137
ltoes -29.3964
727
root 12.7169 15.5104 6.17298 -151.357 -437.758 150.712
lowerback 3.70346 0.66303 0.240867
upperback -7.26872 0.663057 -0.856629
thorax -9.75672 0.191077 -1.11274
lowerneck 7.17245 -1.53447 -11.9426
upperneck 17.7895 -4.44776 7.9491
head 4.57562 -2.95867 4.37617
rclavicle 7.15625e-015 6.36111e-015
rhumerus -61.242 -20.9302 -58.5515
rradius 32.9858
rwrist -1.98253
rhand 4.87646 47.521
rfingers 7.12502
rthumb 30.2521 19.9796
lclavicle 7.15625e-015 6.36111e-015
lhumerus 3.21416 31.1336 67.2519
lradius 119.397
lwrist -28.7097
lhand -25.5189 48.8102
lfingers 7.12502
lthumb 1.01038 438.788
rfemur -4.49455 3.02943 9.00592
rtibia 59.1713
rfoot -3.58892 -6.77771
rtoes -10.0856
lfemur -27.8923 3.73509 -20.3546
ltibia 35.5919
lfoot -14.2086 4.26904
ltoes -28.3988
728
root 12.5048 15.5731 6.26051 -153.693 -438.349 153.863
lowerback 2.85176 0.0998368 0.65368
upperback -7.51172 -0.0608391 -0.547371
thorax -9.53177 -0.187697 -0.92575
lowerneck 7.4536 -1.69197 -12.0573
upperneck 17.3579 -4.7077 8.13582
head 4.42942 -3.0857 4.45036
rclavicle 1.21259e-014 8.74653e-015
rhumerus -63.0264 -21.451 -56.2052
rradius 32.2702
rwrist -1.83968
rhand 5.46742 47.2486
rfingers 7.12502
rthumb 30.8157 19.8122
lclavicle 1.21259e-014 8.74653e-015
lhumerus 4.13049 30.6162 67.97
lradius 119.056
lwrist -28.7153
lhand -25.7061 48.9941
lfingers 7.12502
lthumb 0.829583 438.972
rfemur -8.64412 1.99844 11.7155
rtibia 61.3203
rfoot -6.99933 -7.19556
rtoes -13.8642
lfemur -27.8172 1.81908 -19.7381
ltibia 35.4343
lfoot -14.4491 5.97718
ltoes -28.9672
729
root 12.3105 15.6281 6.34474 -155.698 -438.693 156.634
lowerback 2.43126 -0.465919 1.3852
upperback -7.90729 -0.810892 -0.645783
thorax -9.75183 -0.630746 -1.35684
lowerneck 7.76634 -1.81576 -11.4986
upperneck 17.1096 -4.89223 8.09093
head 4.30614 -3.15606 4.34162
rclavicle -3.71727e-014 -7.95139e-015
rhumerus -65.1873 -21.9372 -54.1869
rradius 31.903
rwrist -1.71511
rhand 5.98494 47.4994
rfingers 7.12502
rthumb 31.309 20.1572
lclavicle -3.71727e-014 -7.95139e-015
lhumerus 4.53284 30.0916 67.7814
lradius 118.836
lwrist -28.8868
lhand -25.2416 49.1104
lfingers 7.12502
lthumb 1.27819 439.086
rfemur -12.7466 1.09623 14.2789
rtibia 62.6706
rfoot -9.95515 -7.67625
rtoes -15.5048
lfemur -27.7562 -0.18 -19.2451
ltibia 35.3058
lfoot -14.7085 7.80263
ltoes -29.482
730
root 12.1178 15.6718 6.41745 -153.826 -438.553 155.16
lowerback 2.18926 -1.07447 1.0296
upperback -8.1665 -1.70923 -0.92058
thorax -9.92865 -1.06809 -1.35233
lowerneck 7.74725 -1.81688 -11.1364
upperneck 17.1536 -4.9135 8.15127
head 4.31455 -3.15325 4.29919
rclavicle -5.00937e-014 -1.74931e-014
rhumerus -67.085 -22.1705 -52.2949
rradius 31.7061
rwrist -1.50312
rhand 6.06146 48.0778
rfingers 7.12502
rthumb 31.3819 20.7498
lclavicle -5.00937e-014 -1.74931e-014
lhumerus 4.60847 29.9006 67.3536
lradius 118.685
lwrist -29.042
lhand -24.6741 48.7798
lfingers 7.12502
lthumb 1.82629 438.752
rfemur -16.3644 0.198303 15.6817
rtibia 63.3141
rfoot -12.8235 -6.87642
rtoes -16.0749
lfemur -27.323 -2.07395 -19.7888
ltibia 35.2021
lfoot -15.3608 9.52127
ltoes -28.5174
731
root 11.9305 15.7033 6.47854 -150.499 -438.047 152.114
lowerback 1.90454 -1.63135 0.110835
upperback -8.32127 -2.58082 -1.26418
thorax -9.9385 -1.44858 -1.11507
lowerneck 7.87841 -1.91244 -10.5851
upperneck 16.8916 -4.99675 7.90271
head 4.20401 -3.17472 4.12653
rclavicle -3.06128e-014 -5.56597e-015
rhumerus -68.7961 -22.3536 -50.4136
rradius 31.6013
rwrist -1.3656
rhand 5.57943 48.6738
rfingers 7.12502
rthumb 30.9225 21.2576
lclavicle -3.06128e-014 -5.56597e-015
lhumerus 4.59381 29.7587 66.9355
lradius 118.462
lwrist -28.7311
lhand -24.8931 48.597
lfingers 7.12502
lthumb 1.61483 438.571
rfemur -19.712 -0.575879 16.4863
rtibia 63.2813
rfoot -15.3486 -5.19262
rtoes -16.7295
lfemur -26.8175 -2.90645 -20.926
ltibia 35.1299
lfoot -16.2048 10.386
ltoes -27.7093
732
root 11.7591 15.7214 6.55324 -146.559 -437.991 148.706
lowerback 1.59258 -2.31254 -0.336726
upperback -8.606 -3.60216 -1.64128
thorax -10.1 -1.9469 -1.16371
lowerneck 7.82392 -1.82828 -10.3845
upperneck 16.8407 -4.92641 8.2406
head 4.1873 -3.12109 4.20106
rclavicle 2.31584e-014 1.78906e-014
rhumerus -70.4613 -22.4257 -48.5931
rradius 31.6704
rwrist -1.67152
rhand 4.94308 49.0082
rfingers 7.12502
rthumb 30.3157 21.4786
lclavicle 2.31584e-014 1.78906e-014
lhumerus 4.4588 29.6079 66.5753
lradius 118.225
lwrist -28.4032
lhand -25.1007 48.6875
lfingers 7.12502
lthumb 1.41432 438.663
rfemur -23.0759 -1.51413 17.3231
rtibia 62.5816
rfoot -17.4448 -3.5957
rtoes -19.5479
lfemur -26.8647 -2.57873 -22.1454
ltibia 35.0588
lfoot -16.6077 9.79961
ltoes -27.8114
